<svg width="78" height="84" viewBox="0 0 78 84" fill="none" xmlns="http://www.w3.org/2000/svg">
<path d="M14.0236 41.88C13.8872 42.115 13.8369 42.3912 13.8817 42.66C13.9265 42.9288 14.0635 43.1729 14.2685 43.3494C21.9224 49.9177 23.7509 60.3685 24.0393 62.3963C24.0783 62.6714 24.2138 62.9231 24.4208 63.1054C24.6279 63.2876 24.8927 63.3883 25.167 63.389C25.2209 63.3884 25.2747 63.3841 25.3281 63.3759C25.627 63.3323 25.8966 63.1703 26.0778 62.9254C26.259 62.6805 26.337 62.3729 26.2947 62.0698C25.9402 59.5783 24.5129 52.1284 19.6122 45.707C22.6151 47.1977 25.6019 49.1651 28.3616 52.2068C31.3129 55.6648 33.1092 60.811 33.1269 60.86C33.1748 61.0051 33.2506 61.1392 33.35 61.2544C33.4494 61.3697 33.5704 61.4637 33.706 61.5312C33.8415 61.5986 33.989 61.6382 34.1397 61.6474C34.2904 61.6567 34.4415 61.6355 34.5841 61.5851C34.7267 61.5348 34.858 61.4562 34.9704 61.354C35.0828 61.2518 35.1741 61.128 35.2389 60.9897C35.3037 60.8515 35.3408 60.7016 35.348 60.5487C35.3552 60.3958 35.3324 60.243 35.2808 60.0992C35.2051 59.8771 33.4201 54.7554 30.3254 50.979C30.0902 47.6271 29.2637 40.9331 26.3817 34.7387C29.0217 37.2153 31.3189 40.0426 33.2107 43.1437L33.2316 43.1813C35.1312 46.3122 36.6502 49.6645 37.7553 53.1651V53.1766V53.1929C38.2386 54.7162 38.8218 57.2158 39.2053 59.0477C39.2598 59.3068 39.4004 59.5391 39.6036 59.7058C39.8068 59.8725 40.0603 59.9635 40.3217 59.9636C40.4018 59.9635 40.4816 59.9553 40.5601 59.9391C40.8562 59.8749 41.1151 59.6943 41.28 59.4369C41.4448 59.1795 41.5023 58.8663 41.4397 58.5661C41.0724 56.8224 40.5295 54.4843 40.0462 52.8647C41.2642 49.4132 42.8903 46.1238 44.8889 43.0686L44.9775 42.9364C46.8955 40.0178 49.1882 37.3708 51.7953 35.0652C48.6216 41.4327 47.6598 48.3944 47.3763 51.5945V51.6108C47.3763 51.619 47.3763 51.6288 47.3763 51.6369C47.1008 56.9497 48.1657 60.6526 48.2108 60.8077C48.3061 61.0899 48.5053 61.3239 48.7667 61.4609C49.0281 61.5979 49.3315 61.6273 49.6139 61.5431C49.8962 61.4589 50.1355 61.2675 50.282 61.0088C50.4285 60.7502 50.4708 60.4442 50.4001 60.1547C50.3905 60.122 49.4625 56.8566 49.6365 52.1986C52.0751 49.685 54.8824 47.5686 57.959 45.9242C56.1417 48.4108 54.774 51.3692 53.9218 54.695C52.8537 58.8763 52.9793 62.1465 52.9858 62.2837C52.9986 62.5811 53.1243 62.8621 53.3364 63.068C53.5486 63.2739 53.831 63.3889 54.1248 63.389H54.1763C54.4788 63.3755 54.7635 63.2407 54.968 63.0145C55.1726 62.7883 55.2801 62.489 55.267 62.1825C55.267 62.0616 54.8465 49.9814 63.6539 43.4066C63.8742 43.2422 64.029 43.0031 64.0901 42.7328C64.1511 42.4625 64.1144 42.1789 63.9866 41.9337C63.8588 41.6885 63.6484 41.498 63.3937 41.3967C63.139 41.2955 62.8568 41.2903 62.5986 41.3821C57.7076 43.1209 53.6527 45.4638 50.0538 48.6442C50.7835 43.9095 52.5685 36.6554 56.9054 31.3019C57.0765 31.092 57.1692 30.8277 57.1669 30.5555C57.1646 30.2833 57.0676 30.0206 56.893 29.8137C56.7183 29.6069 56.4772 29.4691 56.2122 29.4248C55.9472 29.3804 55.6752 29.4323 55.4442 29.5712C52.5186 31.3051 48.3815 34.4317 44.4636 39.6971C42.5835 33.0701 42.3483 29.1418 44.085 22.1768C44.1461 21.9302 44.1254 21.67 44.0261 21.4365C43.9268 21.203 43.7544 21.0092 43.5355 20.8849C43.3166 20.7606 43.0635 20.7128 42.8151 20.7489C42.5668 20.785 42.3371 20.9029 42.1614 21.0845C36.1701 27.2887 33.9614 33.8929 33.3009 39.1355C29.6246 34.0235 25.7066 30.9035 22.8874 29.1206C22.6599 28.9774 22.39 28.9197 22.1248 28.9576C21.8597 28.9956 21.6161 29.1268 21.4366 29.3283C21.2572 29.5297 21.1533 29.7887 21.1432 30.0599C21.133 30.3312 21.2172 30.5974 21.3811 30.8121C25.5923 36.3044 27.1807 43.6384 27.7784 48.3928C23.7654 44.8107 19.4898 42.9641 15.4075 41.387C15.1565 41.2907 14.88 41.2874 14.6268 41.3777C14.3736 41.4679 14.16 41.6458 14.0236 41.88ZM42.7962 42.1119C41.2823 44.4609 39.9791 46.9427 38.9024 49.5275C37.9287 47.0061 36.743 44.5743 35.3582 42.2588C35.4661 37.9355 36.6131 31.9729 40.9693 26.0479C40.1461 31.5468 40.8469 35.666 42.7962 42.1119Z" fill="white"/>
<path d="M74.4476 59.3122C72.8849 58.1122 70.0801 59.3579 66.5536 62.8208C66.5257 62.8475 66.4993 62.8759 66.4747 62.9057C63.8423 66.0715 54.1876 72.3557 47.7113 73.83L47.6743 73.8382C44.1897 74.7541 42.8558 74.6806 42.4047 74.5859C42.5658 74.212 43.0571 73.5231 43.8868 72.7524C45.9698 70.8161 48.222 68.354 47.1314 66.4846C46.2115 64.9106 43.5034 64.091 30.037 68.7197C23.7235 70.8895 17.1361 69.3483 10.4585 64.1368C7.28275 61.6239 4.46763 58.6753 2.09413 55.3758C1.95846 55.1683 1.76041 55.0107 1.52937 54.9263C1.29833 54.8419 1.04659 54.8352 0.8115 54.9072C0.576411 54.9792 0.370489 55.1261 0.22428 55.3261C0.0780701 55.5261 -0.000640215 55.7685 -0.00017646 56.0174C-0.0079986 56.1808 0.0246784 56.3436 0.0948728 56.4909C2.77789 63.8917 7.46215 70.3777 13.6118 75.207C19.7615 80.0363 27.1282 83.0139 34.8693 83.7991C42.6105 84.5844 50.4134 83.1456 57.3855 79.6473C64.3576 76.1491 70.2174 70.7326 74.2945 64.0176C74.2966 64.0124 74.2993 64.0074 74.3026 64.0029L74.5893 63.5131L74.6135 63.4706C75.5688 61.6812 75.506 60.1253 74.4476 59.3122ZM72.6158 62.3522L72.3452 62.8094C65.1521 74.63 52.6909 81.6848 38.9974 81.6848C25.465 81.6848 13.0264 74.5402 5.9396 63.2714C7.24596 64.5202 8.63171 65.6808 10.0879 66.7458C13.1633 68.9793 16.2951 70.5189 19.3995 71.3173C23.1465 72.3191 27.102 72.1777 30.77 70.9108C42.0116 67.0478 44.5908 67.4593 45.1079 67.6699C45.0274 67.9785 44.5989 68.9499 42.3418 71.0479C40.9499 72.3394 39.4646 74.2023 40.2878 75.7386C41.111 77.275 43.3987 77.3501 48.2285 76.0831C55.2025 74.4896 65.2407 67.9295 68.1791 64.4437C70.9291 61.7563 72.4982 61.1783 73.0025 61.1783C72.9993 61.3661 72.9268 61.7628 72.6158 62.3522Z" fill="white"/>
<path d="M77.9046 27.514C75.2231 20.112 70.5397 13.6245 64.3902 8.79382C58.2408 3.96318 50.8737 0.984542 43.132 0.198728C35.3904 -0.587086 27.5868 0.85167 20.6142 4.35037C13.6416 7.84906 7.78165 13.2664 3.70492 19.9824L3.69686 19.9955L3.4101 20.4853L3.38594 20.5294C2.43061 22.3253 2.49183 23.8764 3.54704 24.6894C5.10971 25.8895 7.91447 24.6454 11.441 21.1824C11.4693 21.1556 11.4957 21.1267 11.5199 21.0959C14.1603 17.9269 23.8151 11.6427 30.2865 10.17L30.3235 10.1602C33.8081 9.24588 35.1421 9.31935 35.5931 9.41405C35.432 9.78793 34.9407 10.4769 34.1126 11.2459C32.028 13.1823 29.7758 15.6444 30.8681 17.5154C31.7879 19.0893 34.4944 19.9089 47.9608 15.2803C54.2743 13.1104 60.8617 14.6517 67.541 19.8616C70.7169 22.3743 73.5316 25.3236 75.9037 28.6242C76.0083 28.782 76.1495 28.9115 76.3149 29.0011C76.4804 29.0908 76.665 29.138 76.8526 29.1385C76.9195 29.1382 76.9864 29.1322 77.0523 29.1206C77.3172 29.0732 77.557 28.9326 77.7294 28.7234C77.9018 28.5143 77.9958 28.2502 77.9948 27.9777C78.0029 27.8179 77.9719 27.6586 77.9046 27.514ZM67.9083 17.2526C64.8345 15.0207 61.7011 13.4811 58.5983 12.6794C54.8525 11.6792 50.8988 11.8217 47.2326 13.0892C35.9911 16.9522 33.4135 16.5407 32.8947 16.3301C32.9753 16.0215 33.4038 15.0501 35.6608 12.9521C37.0527 11.659 38.5364 9.7961 37.7132 8.26137C36.89 6.72665 34.6024 6.64828 29.7726 7.91688C22.8002 9.51038 12.7604 16.0689 9.82673 19.5547C7.07675 22.2421 5.50763 22.82 5.00339 22.82C5.00339 22.6274 5.07749 22.2323 5.39003 21.6412L5.65907 21.1857C12.8538 9.36506 25.3133 2.3086 39.0069 2.3086C52.5393 2.3086 64.9762 9.45323 72.0631 20.7237C70.7552 19.475 69.3672 18.3155 67.9083 17.2526Z" fill="white"/>
</svg>
